<?xml version="1.0" encoding="utf-8"?>
<!-- Generator: Adobe Illustrator 27.8.1, SVG Export Plug-In . SVG Version: 6.00 Build 0)  -->
<svg version="1.1" id="圖層_1" xmlns="http://www.w3.org/2000/svg" xmlns:xlink="http://www.w3.org/1999/xlink" x="0px" y="0px"
	 viewBox="0 0 245 92" style="enable-background:new 0 0 245 92;" xml:space="preserve">
<style type="text/css">
	.st0{fill:#0B58AD;}
	.st1{fill:#F4A62F;}
	.st2{display:none;fill:#AAAAAA;}
	.st3{fill:#AAAAAA;}
	.st4{font-family:'MicrosoftJhengHeiRegular';}
	.st5{font-size:28px;}
</style>
<path class="st0" d="M13.4,63.8L8.3,87.7H12c3.6,0,6.6-0.8,8.8-2.4c2.3-1.6,4.3-6.7,5-9.6c0.6-3,0.7-8.1-0.9-9.6
	c-1.7-1.6-4.3-2.3-8-2.3C16.8,63.8,13.4,63.8,13.4,63.8z M6.4,61.7h9.9c2.9,0,5.4,0.2,7.4,0.5c2.1,0.3,3.6,0.8,4.8,1.5
	c2.2,1.3,3.7,2.9,4.5,4.9s0.9,4.4,0.3,7.1c-0.6,2.7-1.8,5.1-3.4,7.1c-1.7,2-4,3.6-6.7,4.9c-1.6,0.7-3.5,1.3-5.7,1.6
	c-2.2,0.3-4.8,0.5-7.9,0.5H4.1c-2,0-3.6-1.7-3-4C1.1,86,6.4,61.7,6.4,61.7z M40.2,62.7h7c-1.9,9.2-3.9,18-5.8,27.3h-3.9
	c-2.5,0-2.7-1.6-2.4-3.3L40.2,62.7z M44.6,87.6c3.3,0,11.1,0.1,14.8,0.1c4.7-0.3,5.7-2,6.3-5.2c0.4-1.9-3.1-3.9-6.8-5.3
	c-9-3.2-10.1-10.2-2.6-13.8c2.9-1.3,6.2-1.7,10.3-1.7c1.1,0,2.2,0.1,3.5,0.4c1.3,0.2,3.1,0.6,5.4,1.2l-0.9,2.4
	c-4.4-0.7-6.6-1.2-10-1.2c-1.5,0-2.7,0.4-3.6,0.7c-3.9,1.4-1.9,5.4,1.3,7c4,2.1,8.4,3.1,9.9,5.3c0.9,1.4,1.5,2.8,1.1,4.6
	c-0.5,2.6-1.9,4.1-4.7,5.6c-2.8,1.5-6.4,2.3-10.8,2.3c-3.1,0-10.5,0-13.6,0C44.1,90,44.6,87.6,44.6,87.6z M111.4,64.4L108.8,78
	c-0.5,2.6-1.2,5.3-0.3,6.5c1.8,2.6,8.6,2.3,10.6,0.3c1.6-1.6,2.8-4.4,3.4-7.5l2.4-13.1l7.4-0.1l-4.6,25.5l-6.7,0.1l0.5-2.9
	c-2.8,2.4-6.2,3.4-11,3.4c-4,0-6.2-1-8-3c-1.6-2-2.1-4.9-1.4-8.7l2.7-13.9c-2-0.3-5.8-0.1-7.4-0.1c-3.2,0-6.9,0.9-9,2.5
	c-6.4,4.7-7.8,20,5.2,20.4c1.1,0.1,4.1-0.6,5.3-0.9l0.3-0.1l-0.4,2.7c-0.6,0.1-2.9,0.7-3.4,0.8c-1.3,0.2-2.6,0.3-3.8,0.3
	c-5.5,0-9.5-1.3-12.3-3.9c-2.7-2.6-3.7-6.2-2.8-10.5c0.7-4.1,3.1-7.5,6.9-10.1c3.9-2.6,8-4.1,13.9-4.1c4.9,0,7.8,0,12.2,0.2
	C111.9,61.7,111.6,63.4,111.4,64.4 M135.9,63.8l22.2-0.1c0.8,3-0.2,5.7-3.1,8.2l-16.8,15.5h17.9v2.5h-24.8c0.3-4,0.4-5.4,4.1-8.9
	l15.5-14.5h-15.5L135.9,63.8L135.9,63.8z M168.8,89.8l-2.1-0.1l-0.2-4.5l2.6,0.3l2.2,0.1l-0.4,4.4L168.8,89.8L168.8,89.8z
	 M171.1,81.8l-3.7-0.4c0.2-2-0.6-17.2-0.7-18.9l-0.2-3.1c1,0,0.8,0,5.3,0.5c2.7,0.2,3.1,0.4,3.9,0.4l-1.1,3.9
	C173.7,67.2,171.3,80.7,171.1,81.8"/>
<path class="st1" d="M27.2,3.2c3,0,5.9,0.4,8.7,1.3c2.6,0.8,5,2,7,3.4c4,2.9,6.2,6.7,6.2,10.7c0,4.5-2.8,8.8-7.7,11.7l-1.6,1
	l0.9,1.7c0.5,0.9,0.7,1.8,0.7,2.8c0,1.8-0.9,3.6-2.7,5c-1.8,1.5-4.3,2.3-7,2.3s-5.2-0.8-7-2.3c-1.7-1.4-2.7-3.1-2.7-5
	c0-0.1,0-0.3,0-0.4l0.1-1.7l-1.7-0.4c-4.4-1-8.3-3-11.1-5.7c-2.7-2.6-4.1-5.8-4.1-9c0-4,2.2-7.8,6.2-10.7c2-1.5,4.4-2.6,7-3.4
	C21.3,3.6,24.2,3.2,27.2,3.2 M27.2,1.2C14.1,1.2,3.4,9,3.4,18.6c0,7.8,7,14.5,16.7,16.7c0,0.2,0,0.4,0,0.5c0,5.1,5.2,9.2,11.7,9.2
	s11.7-4.1,11.7-9.2c0-1.3-0.4-2.6-1-3.8c5.3-3.2,8.6-8,8.6-13.5C51.1,9,40.4,1.2,27.2,1.2z M45.2,48.7c2.5,0,4.6,1.5,4.6,3.2
	c0,1.8-2.1,3.2-4.6,3.2s-4.6-1.5-4.6-3.2C40.6,50.2,42.7,48.7,45.2,48.7 M45.2,46.7c-3.7,0-6.6,2.3-6.6,5.2s3,5.2,6.6,5.2
	c3.7,0,6.6-2.3,6.6-5.2C51.8,49.1,48.9,46.7,45.2,46.7z"/>
<path class="st2" d="M195.5,79.3v8.1c0,1-0.2,1.5-0.9,1.8c-0.6,0.3-1.5,0.4-3.1,0.3c-0.1-0.5-0.3-1.2-0.6-1.7c1.1,0,2,0,2.3,0
	s0.4-0.1,0.4-0.5v-7.4l-2.9,1.2l-0.5-1.7c0.9-0.3,2.1-0.7,3.4-1.2v-5.9h-3.3v-1.7h3.3v-5.4h1.7v5.4h2.8v1.7h-2.8v5.3l2.7-1.1
	l0.3,1.6L195.5,79.3z M213.5,80.3c-1.1,2.5-3,4.4-5.2,5.8c2,0.9,4.2,1.6,6.6,1.9c-0.4,0.3-0.8,1-1.1,1.5c-2.6-0.5-5.1-1.3-7.3-2.4
	c-2.5,1.3-5.5,2.1-8.4,2.6c-0.1-0.5-0.5-1.1-0.8-1.5c2.7-0.4,5.3-1,7.7-2.1c-1.9-1.3-3.5-2.9-4.6-4.7h0.1h-1.2v-1.5h6.4v-2.7h-6V68
	c1.6-0.5,3.3-1.2,4.4-1.9l1.3,1.2c-1.2,0.6-2.7,1.2-4.1,1.6v2.6h3v1.4h-3v2.7h4.4V65.1h1.6v10.5h4.7v-2.7h-3.4v-1.4h3.4v-2.6h-3.5
	v-1.5h5.1v9.8h-6.3v2.7h4.8l0.3-0.1L213.5,80.3L213.5,80.3z M202.2,81.4c1.1,1.6,2.6,2.9,4.4,4c1.8-1,3.4-2.3,4.4-4H202.2z
	 M225.6,84.5c-1.7,1.7-4.3,3.4-6.4,4.6c-0.3-0.3-1-0.9-1.4-1.2c2.2-1,4.6-2.5,6.1-4L225.6,84.5z M230.7,82.4v5.1c0,1-0.2,1.5-1,1.7
	c-0.8,0.3-2.1,0.3-4.1,0.3c-0.1-0.5-0.4-1.2-0.7-1.6c1.7,0,3.1,0,3.5,0s0.5-0.1,0.5-0.4v-4.9c-8,0.5-8.9,0.6-9.6,0.8
	c0-0.3-0.3-1.2-0.5-1.6c0.9-0.1,2-0.5,3.6-1.1c0.9-0.3,2.9-1.2,5.2-2.3c-5.3,0.3-6,0.4-6.4,0.6c0-0.3-0.3-1.2-0.5-1.6
	c0.5-0.1,1.1-0.3,1.9-0.7c0.8-0.3,3.3-1.7,5.2-3.3h-8.2v3.4H218v-5h10.6v-2.6h-10.4v-1.6h10.4v-2.4h1.9v2.4h10.4v1.6h-10.4v2.6h10.7
	v5h-1.8v-3.4h-10.5l0.9,0.6c-1.7,1.3-3.6,2.4-5.5,3.3l6.3-0.4c1.3-0.7,2.6-1.4,3.7-2.2l1.3,1.1c-3.7,2.3-7.6,4.1-11.5,5.6l12.3-0.7
	c-0.8-0.7-1.6-1.4-2.3-2l1.3-0.8c2,1.6,4.3,3.8,5.5,5.3l-1.4,0.9c-0.4-0.6-1-1.3-1.8-2.1L230.7,82.4z M234.5,83.8
	c2.2,1.2,5.1,2.9,6.7,4.2l-1.5,1c-1.4-1.2-4.3-3.1-6.6-4.3C233.1,84.7,234.5,83.8,234.5,83.8z"/>
<text transform="matrix(1 0 0 1 188.3333 87.7004)" class="st3 st4 st5">搜尋</text>
</svg>
