<?xml version="1.0" encoding="utf-8"?>
<!-- Generator: Adobe Illustrator 27.8.1, SVG Export Plug-In . SVG Version: 6.00 Build 0)  -->
<svg version="1.1" id="圖層_1" xmlns="http://www.w3.org/2000/svg" xmlns:xlink="http://www.w3.org/1999/xlink" x="0px" y="0px"
	 viewBox="0 0 129 66" style="enable-background:new 0 0 129 66;" xml:space="preserve">
<style type="text/css">
	.st0{fill:#0B58AD;}
	.st1{fill:#F4A62F;}
</style>
<path class="st0" d="M10,45.8L6.4,63H9c2.6,0,4.7-0.6,6.3-1.7c1.7-1.2,3.1-4.8,3.6-6.9c0.4-2.2,0.5-5.8-0.7-6.9
	c-1.2-1.1-3.1-1.7-5.8-1.7C12.5,45.8,10,45.8,10,45.8z M5,44.3h7.1c2.1,0,3.9,0.1,5.3,0.4c1.5,0.2,2.6,0.6,3.5,1.1
	c1.6,0.9,2.6,2.1,3.2,3.5c0.6,1.5,0.6,3.2,0.2,5.1c-0.4,2-1.3,3.7-2.5,5.1c-1.2,1.4-2.8,2.6-4.8,3.5c-1.1,0.5-2.5,0.9-4.1,1.2
	c-1.6,0.2-3.5,0.4-5.7,0.4h-4c-1.5,0-2.6-1.2-2.1-2.9C1.2,61.7,5,44.3,5,44.3z M29.2,45h5c-1.4,6.6-2.8,12.9-4.1,19.6h-2.8
	c-1.8,0-2-1.1-1.7-2.4C25.6,62.2,29.2,45,29.2,45z M32.4,62.9c2.4,0,8,0.1,10.6,0.1c3.3-0.2,4.1-1.4,4.5-3.7
	c0.3-1.4-2.2-2.8-4.9-3.8c-6.4-2.3-7.3-7.3-1.8-9.9c2.1-1,4.5-1.2,7.4-1.2c0.8,0,1.6,0.1,2.5,0.3c0.9,0.2,2.2,0.4,3.9,0.9L54,47.1
	c-3.2-0.5-4.7-0.9-7.2-0.9c-1.1,0-1.9,0.3-2.6,0.5c-2.8,1-1.3,3.9,0.9,5.1c2.9,1.5,6,2.2,7.1,3.8c0.6,1,1.1,2,0.8,3.3
	c-0.4,1.9-1.4,2.9-3.4,4c-2,1.1-4.6,1.6-7.8,1.6c-2.2,0-7.5,0-9.8,0C32.1,64.6,32.4,62.9,32.4,62.9z M80.3,46.2L78.5,56
	c-0.4,1.9-0.8,3.8-0.2,4.6c1.3,1.8,6.1,1.6,7.6,0.2c1.2-1.2,2-3.1,2.5-5.4l1.7-9.4l5.3,0l-3.3,18.3l-4.8,0l0.4-2.1
	c-2,1.7-4.4,2.4-7.9,2.4c-2.8,0-4.5-0.7-5.7-2.2c-1.2-1.4-1.5-3.5-1-6.3l1.9-9.9c-1.4-0.2-4.2-0.1-5.3-0.1c-2.3,0-4.9,0.7-6.5,1.8
	c-4.6,3.4-5.6,14.3,3.7,14.6c0.8,0.1,2.9-0.4,3.8-0.6l0.2,0l-0.3,1.9c-0.4,0.1-2.1,0.5-2.5,0.6c-1,0.2-1.9,0.2-2.8,0.2
	c-3.9,0-6.8-0.9-8.8-2.8c-1.9-1.9-2.6-4.4-2-7.5c0.5-2.9,2.2-5.4,5-7.2c2.8-1.9,5.7-2.9,10-2.9c3.5,0,5.6,0,8.7,0.1
	C80.7,44.3,80.5,45.5,80.3,46.2 M98,45.8l15.9,0c0.6,2.1-0.1,4.1-2.2,5.9l-12,11.1h12.9l0,1.8H94.8c0.2-2.9,0.3-3.9,2.9-6.4
	l11.1-10.4H97.7L98,45.8L98,45.8z M121.6,64.4l-1.5-0.1l-0.1-3.2l1.9,0.2l1.6,0.1l-0.3,3.1L121.6,64.4L121.6,64.4z M123.2,58.7
	l-2.7-0.3c0.1-1.4-0.4-12.3-0.5-13.6l-0.2-2.2c0.7,0,0.6,0,3.8,0.4c1.9,0.2,2.2,0.3,2.8,0.3l-0.8,2.8
	C125,48.2,123.3,57.9,123.2,58.7"/>
<path class="st1" d="M20,2.3c2.2,0,4.3,0.3,6.2,0.9c1.9,0.6,3.6,1.4,5,2.5c2.9,2.1,4.4,4.8,4.4,7.7c0,3.2-2,6.3-5.5,8.4l-1.2,0.7
	l0.7,1.2c0.4,0.6,0.5,1.3,0.5,2c0,1.3-0.7,2.6-1.9,3.6c-1.3,1-3.1,1.6-5,1.6s-3.7-0.6-5-1.6c-1.2-1-1.9-2.2-1.9-3.6
	c0-0.1,0-0.2,0-0.3l0.1-1.2l-1.2-0.3c-3.2-0.7-6-2.2-7.9-4.1c-1.9-1.9-3-4.1-3-6.5c0-2.9,1.6-5.6,4.4-7.7c1.4-1.1,3.1-1.9,5-2.5
	C15.7,2.6,17.8,2.3,20,2.3 M20,0.8c-9.4,0-17.1,5.6-17.1,12.5c0,5.6,5.1,10.4,12,12c0,0.1,0,0.3,0,0.4c0,3.7,3.8,6.6,8.4,6.6
	s8.4-3,8.4-6.6c0-1-0.3-1.9-0.7-2.7c3.8-2.3,6.2-5.8,6.2-9.7C37.1,6.4,29.4,0.8,20,0.8z M32.9,34.9c1.8,0,3.3,1.1,3.3,2.3
	s-1.5,2.3-3.3,2.3s-3.3-1.1-3.3-2.3S31.1,34.9,32.9,34.9 M32.9,33.5c-2.6,0-4.7,1.7-4.7,3.8s2.1,3.8,4.7,3.8s4.7-1.7,4.7-3.8
	S35.5,33.5,32.9,33.5z"/>
</svg>
